<?xml version="1.0" encoding="UTF-8" standalone="no"?>
<!-- Created with Inkscape (http://www.inkscape.org/) -->

<svg
   width="417.20001"
   height="407.25"
   viewBox="0 0 417.20001 407.24999"
   version="1.1"
   id="svg8"
   inkscape:version="1.4.3 (0d15f75042, 2025-12-25)"
   sodipodi:docname="logitech-g102-g203.svg"
   inkscape:export-filename="/home/jimmac/logitech-g-pro.png"
   inkscape:export-xdpi="96"
   inkscape:export-ydpi="96"
   xmlns:inkscape="http://www.inkscape.org/namespaces/inkscape"
   xmlns:sodipodi="http://sodipodi.sourceforge.net/DTD/sodipodi-0.dtd"
   xmlns="http://www.w3.org/2000/svg"
   xmlns:svg="http://www.w3.org/2000/svg"
   xmlns:rdf="http://www.w3.org/1999/02/22-rdf-syntax-ns#"
   xmlns:cc="http://creativecommons.org/ns#"
   xmlns:dc="http://purl.org/dc/elements/1.1/">
  <defs
     id="defs2">
    <inkscape:path-effect
       effect="spiro"
       id="path-effect4193"
       is_visible="true" />
    <inkscape:path-effect
       effect="spiro"
       id="path-effect4185"
       is_visible="true" />
  </defs>
  <sodipodi:namedview
     id="base"
     pagecolor="#ffffff"
     bordercolor="#666666"
     borderopacity="1.0"
     inkscape:pageopacity="0.0"
     inkscape:pageshadow="2"
     inkscape:zoom="1.9881757"
     inkscape:cx="176.54375"
     inkscape:cy="173.52591"
     inkscape:document-units="px"
     inkscape:current-layer="Device"
     inkscape:document-rotation="0"
     showgrid="false"
     units="px"
     borderlayer="true"
     inkscape:showpageshadow="false"
     inkscape:pagecheckerboard="false"
     showguides="true"
     inkscape:window-width="1920"
     inkscape:window-height="1011"
     inkscape:window-x="0"
     inkscape:window-y="0"
     inkscape:window-maximized="1"
     fit-margin-top="20"
     fit-margin-left="20"
     fit-margin-bottom="20"
     fit-margin-right="0"
     inkscape:guide-bbox="true"
     guidetolerance="10"
     objecttolerance="10"
     gridtolerance="10"
     inkscape:snap-global="true"
     inkscape:snap-object-midpoints="true"
     inkscape:deskcolor="#505050">
    <inkscape:grid
       type="xygrid"
       id="grid956"
       originx="-68.791593"
       originy="1.2767161"
       spacingy="1"
       spacingx="1"
       units="px" />
  </sodipodi:namedview>
  <metadata
     id="metadata5">
    <rdf:RDF>
      <cc:Work
         rdf:about="">
        <dc:format>image/svg+xml</dc:format>
        <dc:type
           rdf:resource="http://purl.org/dc/dcmitype/StillImage" />
        <dc:title />
      </cc:Work>
    </rdf:RDF>
  </metadata>
  <g
     inkscape:groupmode="layer"
     id="Device"
     inkscape:label="Device"
     transform="translate(-68.791597,-394.02675)"
     style="display:inline">
    <path
       transform="translate(0,400.00009)"
       inkscape:connector-curvature="0"
       style="color:#000000;display:inline;overflow:visible;opacity:1;fill:#d3d3ce;fill-opacity:1;stroke:#babdb6;stroke-width:1.5;stroke-linecap:butt;stroke-linejoin:miter;stroke-miterlimit:4;stroke-dasharray:none;stroke-dashoffset:0;stroke-opacity:1;marker:none;marker-start:none;marker-mid:none;marker-end:none;paint-order:normal"
       d="m 266.16642,15.04496 c -22.92467,4.66104 -61.30054,24.9861 -69.63884,36.00461 -12.61957,47.68515 -14.80528,106.34213 -15.92423,155.87459 -2.00552,88.77814 32.07323,172.95939 100.58708,173.36506 46.62862,0.10701 67.422,-29.01299 84.50986,-68.69579 14.62944,-39.36304 14.98472,-73.16931 15.71414,-103.07446 0.40991,-66.33641 -5.20115,-105.262 -13.70975,-157.25734 C 354.76319,35.15715 299.72236,14.28047 297.61469,15.04496 v 5.05311 h -3.45953 v -5.05311 l -25.2862,3.5e-4 v 5.05276 l -2.70254,-10e-6 z"
       id="path870"
       sodipodi:nodetypes="ccscccccccccccc" />
    <path
       style="display:inline;fill:#989896;fill-opacity:1;stroke:#babdb6;stroke-width:1px;stroke-linecap:butt;stroke-linejoin:miter;stroke-opacity:1"
       d="m 229.17383,21.009766 c -0.16635,-0.01757 -0.2857,-0.01608 -0.35156,0.0078 v 5.054688 h -3.45899 v -5.054688 l -25.28516,0.002 v 5.052735 H 197.375 v -5.054688 c -22.92467,4.66104 -61.30037,24.987349 -69.63867,36.00586 -11.37711,42.990297 -14.261,94.837567 -15.54102,140.937497 l 0.002,0.002 82.08984,-38.08008 c -0.097,0.0416 -1.55299,19.69858 16.98437,19.22852 18.53736,-0.47006 17.52732,-19.05273 17.55079,-19.06055 l 83.70898,37.93164 0.0488,-0.0996 C 312.02168,141.36823 306.68242,104.71806 298.91211,57.234375 286.37504,41.63316 234.33067,21.554483 229.17383,21.009766 Z"
       id="path1006"
       inkscape:connector-curvature="0"
       transform="translate(68.791597,394.02675)" />
    <path
       transform="translate(0,400.00009)"
       style="color:#000000;display:inline;overflow:visible;opacity:1;fill:#d3d3ce;fill-opacity:1;stroke:#bfc2bb;stroke-width:1.5;stroke-linecap:square;stroke-linejoin:miter;stroke-miterlimit:4;stroke-dasharray:none;stroke-dashoffset:0;stroke-opacity:1;marker:none;marker-start:none;marker-mid:none;marker-end:none;paint-order:normal"
       d="m 266.16185,15.045758 c -18.53203,3.769004 -47.15067,17.769904 -61.84571,28.81836 -11.15926,49.01809 -14.18353,94.599442 -16.57028,140.693352 l 75.52927,-35.0039 2.89062,-129.455077 h -0.004 z"
       id="button0"
       inkscape:connector-curvature="0"
       sodipodi:nodetypes="ccccccc"
       inkscape:label="#button0" />
    <path
       style="display:inline;fill:#d3d3ce;fill-opacity:1;stroke:#babdb6;stroke-width:1px;stroke-linecap:butt;stroke-linejoin:miter;stroke-opacity:1"
       d="m 132.05273,52.619141 c -1.82879,1.575925 -3.29915,3.06006 -4.3164,4.404297 -11.02439,41.657485 -14.08583,91.685452 -15.42969,136.691402 l 0.0527,-0.0137 3.71874,-1.73242 c 1.00541,-44.43893 6.38155,-97.490788 15.99415,-139.328125 0.001,-0.0054 -0.0176,-0.01533 -0.0195,-0.02148 z"
       id="path1008"
       inkscape:connector-curvature="0"
       transform="translate(68.791597,394.02675)" />
    <rect
       transform="translate(0,400.00009)"
       style="display:inline;opacity:1;fill:#d3d3ce;fill-opacity:1;stroke:#babdb6;stroke-width:1.5;stroke-miterlimit:4;stroke-dasharray:none;stroke-opacity:1"
       id="rect985"
       width="25.286205"
       height="35.886375"
       x="268.86896"
       y="15.044975"
       rx="0"
       ry="0" />
    <path
       transform="translate(0,400.00009)"
       style="display:inline;opacity:1;fill:#d3d3ce;fill-opacity:1;stroke:#babdb6;stroke-width:1.5;stroke-miterlimit:4;stroke-dasharray:none;stroke-opacity:1"
       d="m 267.69435,112.88968 25.82029,0.0837 0.40098,45.62246 c -3.09214,13.17174 -23.47755,15.50099 -27.35134,0 z"
       id="rect1003"
       inkscape:connector-curvature="0"
       sodipodi:nodetypes="ccccc" />
    <rect
       transform="translate(0,400.00009)"
       inkscape:label="#button5"
       ry="5.2884812"
       rx="6.152226"
       y="132.22084"
       x="273.28256"
       height="31.288317"
       width="13.468106"
       id="button5"
       style="color:#000000;display:inline;overflow:visible;opacity:1;fill:#ffffff;fill-opacity:1;stroke:#babdb6;stroke-width:0.99999988;stroke-linecap:butt;stroke-linejoin:bevel;stroke-miterlimit:4;stroke-dasharray:none;stroke-dashoffset:0;stroke-opacity:1;marker:none;marker-start:none;marker-mid:none;marker-end:none;paint-order:normal" />
    <path
       style="display:inline;fill:#d3d3ce;fill-opacity:1;stroke:#babdb6;stroke-width:1px;stroke-linecap:butt;stroke-linejoin:miter;stroke-opacity:1"
       d="m 294.34961,52.697266 c 7.67404,38.319455 12.12064,93.009104 13.58789,139.437504 l 4.29102,2.33203 0.31445,0.13867 c -0.72941,-54.66832 -6.01154,-90.81008 -13.63086,-137.371095 -1.18866,-1.479179 -2.73716,-2.997879 -4.5625,-4.537109 z"
       id="path1010"
       inkscape:connector-curvature="0"
       transform="translate(68.791597,394.02675)" />
    <path
       transform="translate(0,400.00009)"
       inkscape:connector-curvature="0"
       style="color:#000000;display:inline;overflow:visible;opacity:1;fill:#d3d3ce;fill-opacity:1;stroke:#bfc2bb;stroke-width:1.5;stroke-linecap:square;stroke-linejoin:miter;stroke-miterlimit:4;stroke-dasharray:none;stroke-dashoffset:0;stroke-opacity:1;marker:none;marker-start:none;marker-mid:none;marker-end:none;paint-order:normal"
       d="m 297.61497,15.045758 v 5.052735 h -0.004 c -0.072,38.851502 0.17641,91.903097 0.004,129.455077 l 76.24024,35.0039 C 371.4683,138.46428 370.62141,92.883297 359.46263,43.866071 348.69198,36.04897 332.00497,28.07624 318.64622,22.491071 307.62271,18.054789 298.7509,15.065752 297.61497,15.045758 Z"
       id="button1" />
    <rect
       transform="translate(0,400.00009)"
       style="color:#000000;display:inline;overflow:visible;opacity:1;fill:#ffffff;fill-opacity:1;stroke:#babdb6;stroke-width:0.99999982;stroke-linecap:butt;stroke-linejoin:bevel;stroke-miterlimit:4;stroke-dasharray:none;stroke-dashoffset:0;stroke-opacity:1;marker:none;marker-start:none;marker-mid:none;marker-end:none;paint-order:normal"
       id="button2"
       width="21.314863"
       height="55.109035"
       x="270.83594"
       y="53.880791"
       rx="10.657432"
       ry="11.054664"
       inkscape:label="#button2" />
    <path
       transform="translate(0,400.00009)"
       inkscape:connector-curvature="0"
       style="color:#000000;display:inline;overflow:visible;opacity:1;fill:#ffffff;fill-opacity:1;stroke:#babdb6;stroke-width:1;stroke-linecap:butt;stroke-linejoin:bevel;stroke-miterlimit:4;stroke-dasharray:none;stroke-dashoffset:0;stroke-opacity:1;marker:none;marker-start:none;marker-mid:none;marker-end:none;paint-order:normal"
       d="m 183.47044,134.90318 -3.23828,3.46679 -2.36328,40.83203 3.375,2.76368 c 0.0158,-0.0318 0.0292,-0.0639 0.0449,-0.0957 0.4971,-15.01188 1.2161,-30.49256 2.37305,-45.99218 -0.0654,-0.32133 -0.12562,-0.6554 -0.19141,-0.97461 z"
       id="button4" />
    <path
       style="color:#000000;display:inline;overflow:visible;fill:none;fill-opacity:1;stroke:#babdb6;stroke-width:10;stroke-linecap:square;stroke-linejoin:bevel;stroke-miterlimit:4;stroke-dasharray:none;stroke-opacity:1"
       id="led0"
       sodipodi:type="arc"
       sodipodi:cx="-328.60678"
       sodipodi:cy="280.97754"
       sodipodi:rx="13.376111"
       sodipodi:ry="13.525835"
       sodipodi:start="0.78539816"
       sodipodi:end="5.4977871"
       sodipodi:arc-type="arc"
       d="m -319.14844,290.54175 a 13.376111,13.525835 0 0 1 -18.91668,0 13.376111,13.525835 0 0 1 0,-19.12842 13.376111,13.525835 0 0 1 18.91668,0"
       sodipodi:open="true"
       transform="rotate(-90,200.00004,200.00004)"
       inkscape:label="#led0" />
    <path
       transform="translate(0,400.00009)"
       style="color:#000000;display:inline;overflow:visible;opacity:1;fill:#ffffff;fill-opacity:1;stroke:#babdb6;stroke-width:1;stroke-linecap:butt;stroke-linejoin:bevel;stroke-miterlimit:4;stroke-dasharray:none;stroke-dashoffset:0;stroke-opacity:1;marker:none;marker-start:none;marker-mid:none;marker-end:none;paint-order:normal"
       d="m 180.98802,191.98911 -3.65625,3.90235 0.70171,41.21448 3.55024,4.1781 c -0.0255,-0.32903 -0.0218,-0.78636 -0.0254,-1.21094 -0.88777,-10.87151 -1.20752,-21.97334 -0.95508,-33.14844 0.11017,-4.87659 0.24499,-9.90124 0.38477,-14.93555 z"
       id="button3"
       inkscape:connector-curvature="0"
       sodipodi:nodetypes="cccccsc" />
    <path
       transform="translate(0,400.00009)"
       sodipodi:nodetypes="ccccsccsccccc"
       id="led1"
       d="m 381.38813,191.93864 c 0.0522,5.34015 0.0617,10.85826 0.0263,16.58033 -0.72942,29.90515 -1.0847,63.71142 -15.71414,103.07446 -17.08786,39.6828 -37.88124,68.8028 -84.50986,68.69579 -68.51385,-0.40567 -102.5926,-84.58692 -100.58708,-173.36506 0.11095,-4.91156 0.2425,-9.86517 0.38356,-14.93656 l 2.19839,0.0215 c -0.13796,4.95985 -0.26661,11.86142 -0.37513,16.66495 -1.96142,86.82554 31.36807,166.8792 98.37558,167.27594 45.60344,0.10466 65.93966,-26.09877 82.65183,-64.90878 14.30779,-38.49728 14.65526,-71.56001 15.36865,-100.80742 0.0346,-5.59622 0.0253,-13.00199 -0.0257,-18.22469 z"
       style="color:#000000;display:inline;overflow:visible;opacity:1;fill:#babdb6;fill-opacity:1;stroke:#babdb6;stroke-width:1.5;stroke-linecap:butt;stroke-linejoin:miter;stroke-miterlimit:4;stroke-dasharray:none;stroke-dashoffset:0;stroke-opacity:1;marker:none;marker-start:none;marker-mid:none;marker-end:none;paint-order:normal"
       inkscape:connector-curvature="0"
       inkscape:label="#led1" />
  </g>
</svg>
